<svg width="135" height="230" viewBox="0 0 135 230" fill="none" xmlns="http://www.w3.org/2000/svg">
<path d="M0 0H58.0189C77.8302 0 93.3019 2.46091 104.434 7.38272C115.566 12.3045 123.396 20.0659 127.925 30.6667C132.642 41.0782 135 55.0864 135 72.6914V156.173C135 173.967 132.642 188.165 127.925 198.765C123.396 209.366 115.566 217.222 104.434 222.333C93.4906 227.444 78.2076 230 58.5849 230H0V0ZM58.5849 194.79C65.9434 194.79 71.3208 193.749 74.717 191.667C78.3019 189.395 80.566 186.272 81.5094 182.296C82.4528 178.132 82.9245 172.074 82.9245 164.123V63.8889C82.9245 56.5062 82.3585 50.9218 81.2264 47.1358C80.283 43.1605 78.0189 40.2263 74.434 38.3333C71.0377 36.4403 65.6604 35.4938 58.3019 35.4938H50.6604V194.79H58.5849Z" fill="white"/>
</svg>
