<svg xmlns="http://www.w3.org/2000/svg" xmlns:xlink="http://www.w3.org/1999/xlink" width="469" height="162" viewBox="0 0 469 162">
  <defs>
    <clipPath id="clip-D-start">
      <rect width="469" height="162"/>
    </clipPath>
  </defs>
  <g id="D-start" clip-path="url(#clip-D-start)">
    <rect width="469" height="162" fill="#fff"/>
    <path id="Tracciato_2" data-name="Tracciato 2" d="M12,77H67.662c19.006,0,373.25,1.733,383.93,5.2s18.237,8.9,22.672,16.3,6.652,17.3,6.652,29.7V187q0,18.8-6.652,30t-22.536,16.6C441.138,237.2,87.03,239,68.2,239H12ZM68.2,214.2c7.06,0,351.665-.767,355.013-2.3s5.476-3.733,6.381-6.6,1.358-7.1,1.358-12.7V122a48.859,48.859,0,0,0-.725-9.072,18.555,18.555,0,0,0-.769-2.828q-1.493-4.1-6.516-6.1c-3.349-1.333-347.954-2-355.013-2H60.6V214.2Z" transform="translate(-12 -77)" fill="#707070"/>
  </g>
</svg>
<svg xmlns="http://www.w3.org/2000/svg" width="95.4" height="162" viewBox="0 0 95.4 162">
  <path id="Tracciato_1" data-name="Tracciato 1" d="M12,77H53q21,0,32.8,5.2a31.236,31.236,0,0,1,16.7,16.3c3.267,7.4,4.9,19.189,4.9,31.589V187q0,18.8-4.9,30a32.036,32.036,0,0,1-16.6,16.6Q74.2,239,53.4,239H12ZM53.4,214.2q7.8,0,11.5-2.3a10.191,10.191,0,0,0,4.7-6.6,60.182,60.182,0,0,0,1-12.7V122a48.8,48.8,0,0,0-1.1-11.9,9.432,9.432,0,0,0-4.8-6.1q-3.7-2-11.5-2H47.8V214.2Z" transform="translate(-12 -77)" fill="#707070"/>
</svg>
